<svg width="143" height="40" viewBox="0 0 143 40" fill="none" xmlns="http://www.w3.org/2000/svg">
<circle cx="20" cy="20" r="20" fill="#3D3136"/>
<path d="M31.5324 30.3436C29.7962 27.3421 27.1207 25.1898 23.9983 24.1695C25.5428 23.2501 26.7427 21.8491 27.4139 20.1817C28.0851 18.5142 28.1903 16.6726 27.7135 14.9396C27.2367 13.2065 26.2042 11.6779 24.7746 10.5885C23.3449 9.49903 21.5972 8.90901 19.7998 8.90901C18.0023 8.90901 16.2546 9.49903 14.825 10.5885C13.3953 11.6779 12.3628 13.2065 11.886 14.9396C11.4092 16.6726 11.5145 18.5142 12.1857 20.1817C12.8568 21.8491 14.0568 23.2501 15.6013 24.1695C12.4789 25.1886 9.80335 27.3409 8.06718 30.3436C8.00351 30.4474 7.96128 30.5629 7.94297 30.6833C7.92467 30.8037 7.93067 30.9266 7.96062 31.0446C7.99056 31.1627 8.04384 31.2735 8.11732 31.3706C8.19081 31.4678 8.28299 31.5492 8.38845 31.6101C8.4939 31.671 8.61049 31.7102 8.73133 31.7253C8.85217 31.7404 8.97482 31.7312 9.09204 31.6982C9.20925 31.6651 9.31866 31.6089 9.41381 31.5329C9.50896 31.4569 9.58792 31.3626 9.64604 31.2556C11.7937 27.5438 15.5899 25.3277 19.7998 25.3277C24.0097 25.3277 27.8058 27.5438 29.9535 31.2556C30.0116 31.3626 30.0906 31.4569 30.1857 31.5329C30.2809 31.6089 30.3903 31.6651 30.5075 31.6982C30.6247 31.7312 30.7474 31.7404 30.8682 31.7253C30.9891 31.7102 31.1056 31.671 31.2111 31.6101C31.3166 31.5492 31.4087 31.4678 31.4822 31.3706C31.5557 31.2735 31.609 31.1627 31.6389 31.0446C31.6689 30.9266 31.6749 30.8037 31.6566 30.6833C31.6383 30.5629 31.596 30.4474 31.5324 30.3436ZM13.4159 17.1199C13.4159 15.8573 13.7903 14.6231 14.4918 13.5732C15.1933 12.5234 16.1903 11.7052 17.3568 11.222C18.5233 10.7388 19.8069 10.6124 21.0452 10.8587C22.2836 11.1051 23.421 11.7131 24.3138 12.6059C25.2066 13.4987 25.8146 14.6361 26.061 15.8745C26.3073 17.1128 26.1809 18.3964 25.6977 19.5629C25.2145 20.7294 24.3963 21.7264 23.3465 22.4279C22.2966 23.1294 21.0624 23.5038 19.7998 23.5038C18.1072 23.502 16.4845 22.8288 15.2877 21.632C14.0909 20.4352 13.4177 18.8125 13.4159 17.1199Z" fill="#E6E6E6"/>
<path d="M59.788 24H57.688L55.07 16.902H57.212L58.136 19.926C58.276 20.3927 58.3973 20.836 58.5 21.256C58.6027 21.6667 58.668 21.9653 58.696 22.152L58.752 22.418C58.836 21.8113 59.046 20.9807 59.382 19.926L60.334 16.902H62.434L59.788 24ZM65.4599 24H63.4159V16.902H65.4599V24ZM65.2779 14.004C65.5112 14.2373 65.6279 14.5173 65.6279 14.844C65.6279 15.1707 65.5112 15.4507 65.2779 15.684C65.0445 15.9173 64.7645 16.034 64.4379 16.034C64.1112 16.034 63.8312 15.9173 63.5979 15.684C63.3645 15.4507 63.2479 15.1707 63.2479 14.844C63.2479 14.5173 63.3645 14.2373 63.5979 14.004C63.8312 13.7707 64.1112 13.654 64.4379 13.654C64.7645 13.654 65.0445 13.7707 65.2779 14.004ZM72.521 23.664C71.9703 23.9627 71.3077 24.112 70.533 24.112C69.469 24.112 68.5917 23.776 67.901 23.104C67.2103 22.4227 66.865 21.5453 66.865 20.472C66.8837 19.408 67.229 18.5307 67.901 17.84C68.573 17.14 69.4923 16.79 70.659 16.79C71.3777 16.79 71.9983 16.9253 72.521 17.196V18.946C72.0263 18.638 71.4757 18.484 70.869 18.484C70.2997 18.484 69.8377 18.6567 69.483 19.002C69.1283 19.338 68.9463 19.828 68.937 20.472C68.9743 21.0973 69.161 21.5827 69.497 21.928C69.833 22.2733 70.2763 22.446 70.827 22.446C71.415 22.446 71.9797 22.2827 72.521 21.956V23.664ZM75.8915 24H73.8475V16.902H75.8915V24ZM75.7095 14.004C75.9428 14.2373 76.0595 14.5173 76.0595 14.844C76.0595 15.1707 75.9428 15.4507 75.7095 15.684C75.4762 15.9173 75.1962 16.034 74.8695 16.034C74.5428 16.034 74.2628 15.9173 74.0295 15.684C73.7962 15.4507 73.6795 15.1707 73.6795 14.844C73.6795 14.5173 73.7962 14.2373 74.0295 14.004C74.2628 13.7707 74.5428 13.654 74.8695 13.654C75.1962 13.654 75.4762 13.7707 75.7095 14.004ZM84.2546 20.416C84.2546 21.4893 83.9466 22.376 83.3306 23.076C82.724 23.7667 81.8746 24.112 80.7826 24.112C79.672 24.112 78.8133 23.7807 78.2066 23.118C77.6 22.446 77.2966 21.5873 77.2966 20.542C77.2966 19.45 77.614 18.554 78.2486 17.854C78.8833 17.1447 79.728 16.79 80.7826 16.79C81.884 16.79 82.738 17.1307 83.3446 17.812C83.9513 18.4933 84.2546 19.3613 84.2546 20.416ZM79.7606 18.974C79.5366 19.3567 79.4246 19.8513 79.4246 20.458C79.4246 21.0647 79.5366 21.564 79.7606 21.956C79.994 22.3387 80.3393 22.53 80.7966 22.53C81.2446 22.53 81.576 22.3433 81.7906 21.97C82.0146 21.5873 82.1266 21.0927 82.1266 20.486C82.1266 19.0953 81.674 18.4 80.7686 18.4C80.3206 18.4 79.9846 18.5913 79.7606 18.974ZM92.03 24H89.986V22.866C89.6127 23.6593 88.894 24.056 87.83 24.056C87.102 24.056 86.5327 23.8553 86.122 23.454C85.7207 23.0433 85.52 22.4413 85.52 21.648V16.902H87.564V21.186C87.564 22.0167 87.928 22.432 88.656 22.432C89.5427 22.432 89.986 21.8393 89.986 20.654V16.902H92.03V24ZM98.5551 21.858C98.5551 22.558 98.3031 23.0993 97.7991 23.482C97.2951 23.8647 96.6278 24.056 95.7971 24.056C94.9384 24.056 94.2198 23.9113 93.6411 23.622V21.802C94.2851 22.25 94.9664 22.474 95.6851 22.474C96.1984 22.474 96.4551 22.3107 96.4551 21.984C96.4551 21.9 96.4318 21.8207 96.3851 21.746C96.3384 21.6713 96.2591 21.6013 96.1471 21.536C96.0351 21.4707 95.9324 21.4193 95.8391 21.382C95.7458 21.3353 95.6104 21.2747 95.4331 21.2C95.2558 21.1253 95.1204 21.0647 95.0271 21.018C94.0844 20.57 93.6131 19.898 93.6131 19.002C93.6131 18.3113 93.8744 17.7747 94.3971 17.392C94.9291 17.0093 95.5871 16.818 96.3711 16.818C97.0991 16.818 97.7058 16.916 98.1911 17.112V18.862C97.6964 18.5727 97.1178 18.428 96.4551 18.428C96.2124 18.428 96.0258 18.4793 95.8951 18.582C95.7644 18.6753 95.6991 18.7967 95.6991 18.946C95.6991 19.03 95.7224 19.1093 95.7691 19.184C95.8158 19.2587 95.8904 19.3287 95.9931 19.394C96.1051 19.4593 96.2078 19.52 96.3011 19.576C96.4038 19.6227 96.5391 19.6833 96.7071 19.758C96.8844 19.8327 97.0244 19.898 97.1271 19.954C97.5564 20.178 97.9018 20.4393 98.1631 20.738C98.4244 21.0273 98.5551 21.4007 98.5551 21.858ZM101.657 21.984C101.899 22.2267 102.021 22.5207 102.021 22.866C102.021 23.2113 101.899 23.5053 101.657 23.748C101.414 23.9907 101.12 24.112 100.775 24.112C100.429 24.112 100.135 23.9907 99.8927 23.748C99.6501 23.5053 99.5288 23.2113 99.5288 22.866C99.5288 22.5207 99.6501 22.2267 99.8927 21.984C100.135 21.7413 100.429 21.62 100.775 21.62C101.12 21.62 101.414 21.7413 101.657 21.984ZM108.262 21.858C108.262 22.558 108.01 23.0993 107.506 23.482C107.002 23.8647 106.335 24.056 105.504 24.056C104.645 24.056 103.927 23.9113 103.348 23.622V21.802C103.992 22.25 104.673 22.474 105.392 22.474C105.905 22.474 106.162 22.3107 106.162 21.984C106.162 21.9 106.139 21.8207 106.092 21.746C106.045 21.6713 105.966 21.6013 105.854 21.536C105.742 21.4707 105.639 21.4193 105.546 21.382C105.453 21.3353 105.317 21.2747 105.14 21.2C104.963 21.1253 104.827 21.0647 104.734 21.018C103.791 20.57 103.32 19.898 103.32 19.002C103.32 18.3113 103.581 17.7747 104.104 17.392C104.636 17.0093 105.294 16.818 106.078 16.818C106.806 16.818 107.413 16.916 107.898 17.112V18.862C107.403 18.5727 106.825 18.428 106.162 18.428C105.919 18.428 105.733 18.4793 105.602 18.582C105.471 18.6753 105.406 18.7967 105.406 18.946C105.406 19.03 105.429 19.1093 105.476 19.184C105.523 19.2587 105.597 19.3287 105.7 19.394C105.812 19.4593 105.915 19.52 106.008 19.576C106.111 19.6227 106.246 19.6833 106.414 19.758C106.591 19.8327 106.731 19.898 106.834 19.954C107.263 20.178 107.609 20.4393 107.87 20.738C108.131 21.0273 108.262 21.4007 108.262 21.858ZM111.63 24H109.586V14.102H111.63V24ZM119.825 24H117.781V22.866C117.408 23.6593 116.689 24.056 115.625 24.056C114.897 24.056 114.328 23.8553 113.917 23.454C113.516 23.0433 113.315 22.4413 113.315 21.648V16.902H115.359V21.186C115.359 22.0167 115.723 22.432 116.451 22.432C117.338 22.432 117.781 21.8393 117.781 20.654V16.902H119.825V24ZM128.086 23.314C128.086 24.4527 127.745 25.3067 127.064 25.876C126.383 26.4547 125.529 26.744 124.502 26.744C123.503 26.744 122.631 26.5667 121.884 26.212V24.126C122.537 24.6487 123.34 24.91 124.292 24.91C124.908 24.91 125.356 24.7793 125.636 24.518C125.916 24.2567 126.056 23.846 126.056 23.286V22.81C125.645 23.4447 124.992 23.762 124.096 23.762C123.312 23.762 122.635 23.4727 122.066 22.894C121.506 22.3153 121.226 21.4567 121.226 20.318C121.226 19.31 121.497 18.4793 122.038 17.826C122.589 17.1633 123.307 16.832 124.194 16.832C125.034 16.832 125.655 17.168 126.056 17.84V16.902H128.086V23.314ZM123.354 20.332C123.354 20.92 123.466 21.368 123.69 21.676C123.914 21.984 124.236 22.138 124.656 22.138C125.095 22.138 125.435 21.9747 125.678 21.648C125.93 21.312 126.056 20.9107 126.056 20.444C126.056 19.1747 125.594 18.54 124.67 18.54C124.259 18.54 123.937 18.6987 123.704 19.016C123.471 19.3333 123.354 19.772 123.354 20.332ZM136.275 23.314C136.275 24.4527 135.935 25.3067 135.253 25.876C134.572 26.4547 133.718 26.744 132.691 26.744C131.693 26.744 130.82 26.5667 130.073 26.212V24.126C130.727 24.6487 131.529 24.91 132.481 24.91C133.097 24.91 133.545 24.7793 133.825 24.518C134.105 24.2567 134.245 23.846 134.245 23.286V22.81C133.835 23.4447 133.181 23.762 132.285 23.762C131.501 23.762 130.825 23.4727 130.255 22.894C129.695 22.3153 129.415 21.4567 129.415 20.318C129.415 19.31 129.686 18.4793 130.227 17.826C130.778 17.1633 131.497 16.832 132.383 16.832C133.223 16.832 133.844 17.168 134.245 17.84V16.902H136.275V23.314ZM131.543 20.332C131.543 20.92 131.655 21.368 131.879 21.676C132.103 21.984 132.425 22.138 132.845 22.138C133.284 22.138 133.625 21.9747 133.867 21.648C134.119 21.312 134.245 20.9107 134.245 20.444C134.245 19.1747 133.783 18.54 132.859 18.54C132.449 18.54 132.127 18.6987 131.893 19.016C131.66 19.3333 131.543 19.772 131.543 20.332Z" fill="#EEE5E5"/>
</svg>
