<svg width="150" height="150" viewBox="0 0 150 150" fill="none" xmlns="http://www.w3.org/2000/svg">
<g clip-path="url(#clip0_394_1083)">
<path d="M140 0H10C4.47715 0 0 4.47715 0 10V140C0 145.523 4.47715 150 10 150H140C145.523 150 150 145.523 150 140V10C150 4.47715 145.523 0 140 0Z" fill="url(#paint0_linear_394_1083)"/>
<g clip-path="url(#clip1_394_1083)">
<path d="M115.65 37.9969C110.944 32.9181 104.57 30.062 97.9231 30.0532C91.276 30.0444 84.8962 32.8837 80.1787 37.9501L74.5151 43.6419L68.8472 37.9313C64.1309 32.8429 57.7393 29.9899 51.0787 30C44.4181 30.0101 38.034 32.8825 33.3308 37.9852C28.6277 43.0879 25.9907 50.003 26 57.2092C26.0094 64.4155 28.6642 71.3226 33.3806 76.411L72.0687 118.882C72.391 119.236 72.7752 119.517 73.1989 119.709C73.6227 119.901 74.0774 120 74.5368 120C74.9961 120 75.4509 119.901 75.8746 119.709C76.2983 119.517 76.6825 119.236 77.0048 118.882L115.65 76.411C120.356 71.3159 123 64.4073 123 57.2039C123 50.0006 120.356 43.092 115.65 37.9969ZM110.735 71.1454L74.5151 110.89L38.2735 71.108C34.8628 67.4179 32.9467 62.4131 32.9467 57.1946C32.9467 51.976 34.8628 46.9713 38.2735 43.2812C41.6841 39.5911 46.31 37.5181 51.1334 37.5181C55.9568 37.5181 60.5827 39.5911 63.9934 43.2812L64.08 43.3749L72.1553 51.5027C72.7963 52.1481 73.6395 52.5069 74.5151 52.5069C75.3908 52.5069 76.2339 52.1481 76.875 51.5027L84.9503 43.3749L85.0369 43.2812C88.4499 39.5936 93.077 37.5239 97.9004 37.5275C102.724 37.531 107.348 39.6074 110.757 43.2999C114.165 46.9925 116.078 51.9987 116.075 57.2172C116.072 62.4357 114.153 67.4391 110.74 71.1267L110.735 71.1454Z" fill="#EEE5E5"/>
</g>
</g>
<defs>
<linearGradient id="paint0_linear_394_1083" x1="75" y1="0" x2="75" y2="150" gradientUnits="userSpaceOnUse">
<stop stop-color="#F79461"/>
<stop offset="1" stop-color="#F15B59"/>
</linearGradient>
<clipPath id="clip0_394_1083">
<rect width="150" height="150" fill="white"/>
</clipPath>
<clipPath id="clip1_394_1083">
<rect width="97" height="90" fill="white" transform="translate(26 30)"/>
</clipPath>
</defs>
</svg>
