<svg width="107" height="23" viewBox="0 0 107 23" fill="none" xmlns="http://www.w3.org/2000/svg">
<path d="M2.59077 22.2394C1.79264 22.2793 1.17409 22.0798 0.735121 21.6408C0.316104 21.1819 0.106595 20.6033 0.106595 19.9049C0.106595 19.3662 0.256244 18.8973 0.555542 18.4982C0.85484 18.0992 1.30379 17.8797 1.90238 17.8398L2.74042 17.7799C3.45873 17.74 3.98749 17.5704 4.32669 17.2711C4.6659 16.9518 4.8355 16.4331 4.8355 15.7147V3.4136C4.8355 2.49576 5.07494 1.80737 5.55382 1.34845C6.03269 0.869572 6.7111 0.630134 7.58904 0.630134C8.46698 0.630134 9.14539 0.869572 9.62427 1.34845C10.1031 1.80737 10.3426 2.49576 10.3426 3.4136V15.625C10.3426 17.0017 10.0932 18.169 9.59434 19.1267C9.09551 20.0645 8.34726 20.7928 7.3496 21.3116C6.3719 21.8104 5.14478 22.0998 3.66824 22.1796L2.59077 22.2394ZM23.4712 22.3292C21.9348 22.3292 20.578 22.1397 19.4008 21.7606C18.2235 21.3615 17.2259 20.7729 16.4078 19.9947C15.6097 19.2165 15.0011 18.2488 14.5821 17.0915C14.183 15.9143 13.9835 14.5575 13.9835 13.0211V3.4136C13.9835 2.49576 14.2229 1.80737 14.7018 1.34845C15.1807 0.869572 15.8591 0.630134 16.737 0.630134C17.6349 0.630134 18.3133 0.869572 18.7723 1.34845C19.2511 1.80737 19.4906 2.49576 19.4906 3.4136V13.0809C19.4906 14.6173 19.8298 15.7746 20.5082 16.5528C21.1866 17.331 22.1743 17.72 23.4712 17.72C24.7482 17.72 25.7259 17.331 26.4044 16.5528C27.0828 15.7746 27.422 14.6173 27.422 13.0809V3.4136C27.422 2.49576 27.6514 1.80737 28.1104 1.34845C28.5892 0.869572 29.2676 0.630134 30.1456 0.630134C31.0235 0.630134 31.6919 0.869572 32.1509 1.34845C32.6098 1.80737 32.8393 2.49576 32.8393 3.4136V13.0211C32.8393 15.0762 32.4801 16.8022 31.7618 18.1989C31.0634 19.5757 30.0159 20.6133 28.6192 21.3116C27.2224 21.99 25.5065 22.3292 23.4712 22.3292ZM39.2756 22.2694C38.3976 22.2694 37.7192 22.0299 37.2403 21.5511C36.7615 21.0522 36.522 20.3638 36.522 19.4859V3.4136C36.522 2.49576 36.7615 1.80737 37.2403 1.34845C37.7192 0.869572 38.3976 0.630134 39.2756 0.630134C40.1735 0.630134 40.8519 0.869572 41.3108 1.34845C41.7897 1.80737 42.0291 2.49576 42.0291 3.4136V9.9383H42.089L49.3619 1.91712C49.741 1.51805 50.1401 1.20878 50.5591 0.989292C50.9981 0.749853 51.4869 0.630134 52.0256 0.630134C52.8637 0.630134 53.4623 0.849619 53.8214 1.28859C54.2005 1.70761 54.3701 2.20644 54.3302 2.78508C54.3103 3.34377 54.0808 3.86255 53.6419 4.34143L46.3988 12.0334V9.78865L54.001 18.3785C54.5198 18.9571 54.7792 19.5557 54.7792 20.1743C54.7792 20.7729 54.5697 21.2717 54.1507 21.6708C53.7516 22.0698 53.153 22.2694 52.3549 22.2694C51.6765 22.2694 51.1278 22.1397 50.7087 21.8803C50.3097 21.6009 49.8707 21.1919 49.3918 20.6532L42.089 12.4823H42.0291V19.4859C42.0291 20.3638 41.7996 21.0522 41.3407 21.5511C40.8818 22.0299 40.1934 22.2694 39.2756 22.2694ZM60.7027 22C59.7649 22 59.0466 21.7606 58.5478 21.2817C58.0689 20.7829 57.8295 20.0745 57.8295 19.1567V3.74283C57.8295 2.82499 58.0689 2.12662 58.5478 1.64775C59.0466 1.14892 59.7649 0.899502 60.7027 0.899502H70.8489C71.5672 0.899502 72.106 1.07908 72.4651 1.43824C72.8243 1.7974 73.0039 2.31618 73.0039 2.99459C73.0039 3.69295 72.8243 4.23168 72.4651 4.6108C72.106 4.96995 71.5672 5.14953 70.8489 5.14953H63.0971V9.16012H70.1905C70.8888 9.16012 71.4176 9.3397 71.7767 9.69886C72.1558 10.058 72.3454 10.5868 72.3454 11.2851C72.3454 11.9835 72.1558 12.5123 71.7767 12.8714C71.4176 13.2306 70.8888 13.4102 70.1905 13.4102H63.0971V17.75H70.8489C71.5672 17.75 72.106 17.9395 72.4651 18.3186C72.8243 18.6778 73.0039 19.1966 73.0039 19.875C73.0039 20.5733 72.8243 21.1021 72.4651 21.4613C72.106 21.8204 71.5672 22 70.8489 22H60.7027ZM78.9975 22C78.1196 22 77.4312 21.7606 76.9324 21.2817C76.4535 20.7829 76.2141 20.0945 76.2141 19.2165V3.65304C76.2141 2.75515 76.4535 2.06676 76.9324 1.58789C77.4113 1.10901 78.0897 0.869572 78.9676 0.869572C79.8655 0.869572 80.5439 1.10901 81.0028 1.58789C81.4817 2.06676 81.7211 2.75515 81.7211 3.65304V17.4207H89.024C89.7822 17.4207 90.3609 17.6203 90.7599 18.0193C91.179 18.3984 91.3885 18.9571 91.3885 19.6954C91.3885 20.4337 91.179 21.0023 90.7599 21.4014C90.3609 21.8005 89.7822 22 89.024 22H78.9975ZM97.8778 22.2694C96.9999 22.2694 96.3215 22.0299 95.8426 21.5511C95.3637 21.0522 95.1243 20.3439 95.1243 19.426V11.2253L96.2616 14.2482L89.3778 4.34143C89.0386 3.86255 88.8889 3.33379 88.9288 2.75515C88.9887 2.15655 89.2281 1.65772 89.6472 1.25866C90.0861 0.839642 90.7047 0.630134 91.5028 0.630134C92.0615 0.630134 92.5703 0.769806 93.0292 1.04915C93.4881 1.30854 93.9171 1.75749 94.3162 2.39599L98.5064 8.56153H97.4289L101.619 2.36606C102.038 1.72756 102.467 1.27861 102.906 1.01922C103.345 0.759829 103.864 0.630134 104.462 0.630134C105.221 0.630134 105.809 0.819689 106.228 1.1988C106.647 1.57791 106.867 2.05679 106.887 2.63543C106.927 3.21407 106.747 3.80269 106.348 4.40129L99.524 14.2482L100.631 11.2253V19.426C100.631 21.3216 99.7135 22.2694 97.8778 22.2694Z" fill="#F79461"/>
</svg>
