<svg width="222" height="59" viewBox="0 0 222 59" fill="none" xmlns="http://www.w3.org/2000/svg">
<g clip-path="url(#clip0_174_292)">
<path d="M23.8929 7.47143C10.6098 7.59141 0 18.82 0 32.3458V42.0643C0 43.2173 0.916969 44.1509 2.04953 44.1509H7.17191C7.17191 44.1509 7.18628 44.145 7.18628 44.1362V32.296C7.18628 22.8321 14.568 14.9279 23.8642 14.7903C33.3098 14.6528 41.0365 22.437 41.0365 32.018V44.1333C41.0365 44.1333 41.0423 44.1479 41.0509 44.1479H46.1187C47.28 44.1479 48.2228 43.1881 48.2228 42.0058V32.018C48.2228 18.4103 37.291 7.35144 23.8929 7.47143Z" fill="#F79461"/>
<path d="M24.3816 18.1349C16.7038 17.9828 10.4086 24.3008 10.4086 32.0851V44.1477H12.6852C13.8091 44.1477 14.7203 43.22 14.7203 42.0758V32.2723C14.7203 26.9229 19.0206 22.4309 24.2752 22.5216C29.5298 22.6123 33.5053 26.8673 33.5053 32.0851V42.1109C33.5053 43.2346 34.3993 44.1477 35.5059 44.1477H37.817V32.3192C37.817 24.6813 31.8841 18.2812 24.3816 18.1349Z" fill="#F79461"/>
</g>
<path d="M68.1586 44.3477C66.9995 44.4057 66.1011 44.1159 65.4636 43.4784C64.855 42.8119 64.5507 41.9715 64.5507 40.9572C64.5507 40.1748 64.7681 39.4938 65.2028 38.9142C65.6374 38.3346 66.2895 38.0158 67.1588 37.9579L68.376 37.8709C69.4192 37.813 70.1871 37.5667 70.6798 37.132C71.1724 36.6683 71.4187 35.9149 71.4187 34.8716V17.0061C71.4187 15.6731 71.7665 14.6733 72.462 14.0068C73.1575 13.3113 74.1428 12.9635 75.4178 12.9635C76.6929 12.9635 77.6782 13.3113 78.3737 14.0068C79.0692 14.6733 79.4169 15.6731 79.4169 17.0061V34.7412C79.4169 36.7408 79.0547 38.436 78.3302 39.827C77.6058 41.189 76.519 42.2468 75.0701 43.0002C73.6501 43.7247 71.8679 44.1449 69.7235 44.2608L68.1586 44.3477ZM98.4843 44.4782C96.2529 44.4782 94.2824 44.2029 92.5726 43.6523C90.8628 43.0727 89.4139 42.2178 88.2258 41.0876C87.0666 39.9574 86.1827 38.552 85.5742 36.8712C84.9946 35.1614 84.7048 33.1908 84.7048 30.9595V17.0061C84.7048 15.6731 85.0526 14.6733 85.7481 14.0068C86.4436 13.3113 87.4288 12.9635 88.7039 12.9635C90.008 12.9635 90.9933 13.3113 91.6598 14.0068C92.3553 14.6733 92.703 15.6731 92.703 17.0061V31.0464C92.703 33.2778 93.1957 34.9586 94.1809 36.0887C95.1662 37.2189 96.6007 37.784 98.4843 37.784C100.339 37.784 101.759 37.2189 102.744 36.0887C103.73 34.9586 104.222 33.2778 104.222 31.0464V17.0061C104.222 15.6731 104.555 14.6733 105.222 14.0068C105.917 13.3113 106.903 12.9635 108.178 12.9635C109.453 12.9635 110.424 13.3113 111.09 14.0068C111.757 14.6733 112.09 15.6731 112.09 17.0061V30.9595C112.09 33.9443 111.568 36.451 110.525 38.4795C109.511 40.4791 107.989 41.986 105.961 43.0002C103.932 43.9855 101.44 44.4782 98.4843 44.4782ZM121.438 44.3912C120.163 44.3912 119.177 44.0435 118.482 43.348C117.786 42.6235 117.439 41.6237 117.439 40.3486V17.0061C117.439 15.6731 117.786 14.6733 118.482 14.0068C119.177 13.3113 120.163 12.9635 121.438 12.9635C122.742 12.9635 123.727 13.3113 124.394 14.0068C125.089 14.6733 125.437 15.6731 125.437 17.0061V26.4822H125.524L136.087 14.8327C136.637 14.2531 137.217 13.8039 137.825 13.4851C138.463 13.1374 139.173 12.9635 139.955 12.9635C141.172 12.9635 142.042 13.2823 142.563 13.9198C143.114 14.5284 143.36 15.2529 143.302 16.0933C143.273 16.9047 142.94 17.6581 142.303 18.3536L131.783 29.525V26.2649L142.824 38.7403C143.578 39.5807 143.954 40.4501 143.954 41.3484C143.954 42.2178 143.65 42.9423 143.042 43.5218C142.462 44.1014 141.593 44.3912 140.433 44.3912C139.448 44.3912 138.651 44.2029 138.043 43.8261C137.463 43.4204 136.826 42.8264 136.13 42.0439L125.524 30.177H125.437V40.3486C125.437 41.6237 125.104 42.6235 124.437 43.348C123.771 44.0435 122.771 44.3912 121.438 44.3912ZM152.557 44C151.195 44 150.152 43.6523 149.428 42.9568C148.732 42.2323 148.384 41.2035 148.384 39.8705V17.4842C148.384 16.1512 148.732 15.1369 149.428 14.4414C150.152 13.717 151.195 13.3547 152.557 13.3547H167.293C168.336 13.3547 169.119 13.6155 169.64 14.1372C170.162 14.6588 170.423 15.4122 170.423 16.3975C170.423 17.4118 170.162 18.1942 169.64 18.7448C169.119 19.2664 168.336 19.5273 167.293 19.5273H156.035V25.352H166.337C167.351 25.352 168.119 25.6128 168.641 26.1345C169.191 26.6561 169.467 27.424 169.467 28.4383C169.467 29.4526 169.191 30.2205 168.641 30.7421C168.119 31.2637 167.351 31.5246 166.337 31.5246H156.035V37.8275H167.293C168.336 37.8275 169.119 38.1028 169.64 38.6534C170.162 39.175 170.423 39.9285 170.423 40.9137C170.423 41.928 170.162 42.6959 169.64 43.2176C169.119 43.7392 168.336 44 167.293 44H152.557ZM179.128 44C177.853 44 176.853 43.6523 176.128 42.9568C175.433 42.2323 175.085 41.2325 175.085 39.9574V17.3538C175.085 16.0498 175.433 15.05 176.128 14.3545C176.824 13.659 177.809 13.3113 179.084 13.3113C180.388 13.3113 181.374 13.659 182.04 14.3545C182.736 15.05 183.083 16.0498 183.083 17.3538V37.3493H193.69C194.791 37.3493 195.631 37.6391 196.211 38.2187C196.819 38.7693 197.124 39.5807 197.124 40.6529C197.124 41.7252 196.819 42.5511 196.211 43.1306C195.631 43.7102 194.791 44 193.69 44H179.128ZM206.549 44.3912C205.274 44.3912 204.288 44.0435 203.593 43.348C202.897 42.6235 202.549 41.5947 202.549 40.2617V28.3514L204.201 32.7417L194.204 18.3536C193.711 17.6581 193.494 16.8902 193.552 16.0498C193.638 15.1804 193.986 14.4559 194.595 13.8764C195.232 13.2678 196.131 12.9635 197.29 12.9635C198.101 12.9635 198.84 13.1664 199.507 13.5721C200.173 13.9488 200.796 14.6008 201.376 15.5282L207.461 24.4827H205.897L211.982 15.4847C212.591 14.5574 213.214 13.9053 213.851 13.5286C214.489 13.1519 215.242 12.9635 216.112 12.9635C217.213 12.9635 218.068 13.2388 218.676 13.7894C219.285 14.34 219.604 15.0355 219.633 15.8759C219.691 16.7163 219.43 17.5712 218.85 18.4405L208.939 32.7417L210.548 28.3514V40.2617C210.548 43.0147 209.215 44.3912 206.549 44.3912Z" fill="#F79461"/>
<defs>
<clipPath id="clip0_174_292">
<rect width="48.2228" height="36.6765" fill="white" transform="translate(0 7.47115)"/>
</clipPath>
</defs>
</svg>
