<svg width="20" height="18" viewBox="0 0 20 18" fill="none" xmlns="http://www.w3.org/2000/svg">
<path d="M7.5 14.2498C7.5 14.4487 7.42098 14.6395 7.28033 14.7801C7.13968 14.9208 6.94891 14.9998 6.75 14.9998H3.75C3.55109 14.9998 3.36032 14.9208 3.21967 14.7801C3.07902 14.6395 3 14.4487 3 14.2498C3 14.0509 3.07902 13.8601 3.21967 13.7194C3.36032 13.5788 3.55109 13.4998 3.75 13.4998H6.75C6.94891 13.4998 7.13968 13.5788 7.28033 13.7194C7.42098 13.8601 7.5 14.0509 7.5 14.2498ZM6.75 10.4998H3.75C3.55109 10.4998 3.36032 10.5788 3.21967 10.7194C3.07902 10.8601 3 11.0509 3 11.2498C3 11.4487 3.07902 11.6395 3.21967 11.7801C3.36032 11.9208 3.55109 11.9998 3.75 11.9998H6.75C6.94891 11.9998 7.13968 11.9208 7.28033 11.7801C7.42098 11.6395 7.5 11.4487 7.5 11.2498C7.5 11.0509 7.42098 10.8601 7.28033 10.7194C7.13968 10.5788 6.94891 10.4998 6.75 10.4998ZM6.75 7.49978H3.75C3.55109 7.49978 3.36032 7.5788 3.21967 7.71945C3.07902 7.8601 3 8.05087 3 8.24978C3 8.44869 3.07902 8.63946 3.21967 8.78011C3.36032 8.92076 3.55109 8.99978 3.75 8.99978H6.75C6.94891 8.99978 7.13968 8.92076 7.28033 8.78011C7.42098 8.63946 7.5 8.44869 7.5 8.24978C7.5 8.05087 7.42098 7.8601 7.28033 7.71945C7.13968 7.5788 6.94891 7.49978 6.75 7.49978ZM19.5 5.99978V16.4998C19.5 16.8976 19.342 17.2791 19.0607 17.5604C18.7794 17.8417 18.3978 17.9998 18 17.9998H1.5C1.10218 17.9998 0.720644 17.8417 0.43934 17.5604C0.158035 17.2791 0 16.8976 0 16.4998V5.24978C4.52515e-05 5.08854 0.0520516 4.93161 0.148308 4.80225C0.244564 4.6729 0.379944 4.57801 0.534375 4.53165L15.5344 0.0316537C15.6287 0.00333743 15.7278 -0.00611465 15.8258 0.00383724C15.9238 0.0137891 16.0189 0.0429501 16.1057 0.089655C16.1924 0.13636 16.2691 0.199694 16.3314 0.276042C16.3937 0.35239 16.4403 0.440255 16.4686 0.534622C16.4969 0.62899 16.5064 0.72801 16.4964 0.82603C16.4865 0.92405 16.4573 1.01915 16.4106 1.1059C16.3639 1.19265 16.3006 1.26935 16.2242 1.33163C16.1479 1.3939 16.06 1.44052 15.9656 1.46884L5.86031 4.49978H18C18.3978 4.49978 18.7794 4.65781 19.0607 4.93912C19.342 5.22042 19.5 5.60195 19.5 5.99978ZM18 16.4998V5.99978H1.5V16.4998H18ZM16.5 11.2498C16.5 11.9915 16.2801 12.7165 15.868 13.3332C15.456 13.9499 14.8703 14.4305 14.1851 14.7143C13.4998 14.9982 12.7458 15.0724 12.0184 14.9277C11.291 14.783 10.6228 14.4259 10.0983 13.9014C9.5739 13.377 9.21675 12.7088 9.07205 11.9814C8.92736 11.2539 9.00162 10.4999 9.28545 9.81472C9.56928 9.12949 10.0499 8.54382 10.6666 8.13177C11.2833 7.71971 12.0083 7.49978 12.75 7.49978C13.7446 7.49978 14.6984 7.89487 15.4017 8.59813C16.1049 9.30139 16.5 10.2552 16.5 11.2498ZM15 11.2498C15 10.8048 14.868 10.3698 14.6208 9.99975C14.3736 9.62973 14.0222 9.34135 13.611 9.17105C13.1999 9.00075 12.7475 8.95619 12.311 9.04301C11.8746 9.12983 11.4737 9.34412 11.159 9.65879C10.8443 9.97346 10.63 10.3744 10.5432 10.8108C10.4564 11.2473 10.501 11.6997 10.6713 12.1108C10.8416 12.5219 11.13 12.8734 11.5 13.1206C11.87 13.3678 12.305 13.4998 12.75 13.4998C13.3467 13.4998 13.919 13.2627 14.341 12.8408C14.7629 12.4188 15 11.8465 15 11.2498Z" fill="#EEE5E5"/>
</svg>
