<svg width="40" height="40" viewBox="0 0 40 40" fill="none" xmlns="http://www.w3.org/2000/svg">
<circle cx="20" cy="20" r="20" fill="#3D3136"/>
<path d="M20.6554 14.329C19.5828 14.329 18.5344 14.6471 17.6426 15.243C16.7508 15.8388 16.0557 16.6858 15.6453 17.6767C15.2348 18.6676 15.1275 19.7579 15.3367 20.8099C15.5459 21.8618 16.0624 22.8281 16.8208 23.5865C17.5792 24.3449 18.5455 24.8614 19.5974 25.0706C20.6494 25.2799 21.7397 25.1725 22.7306 24.762C23.7215 24.3516 24.5685 23.6565 25.1643 22.7647C25.7602 21.8729 26.0783 20.8245 26.0783 19.7519C26.0768 18.3141 25.505 16.9357 24.4883 15.919C23.4716 14.9023 22.0932 14.3305 20.6554 14.329ZM20.6554 23.3672C19.9404 23.3672 19.2414 23.1551 18.6469 22.7579C18.0523 22.3606 17.5889 21.796 17.3153 21.1354C17.0417 20.4748 16.9701 19.7479 17.1096 19.0466C17.2491 18.3453 17.5934 17.7011 18.099 17.1955C18.6046 16.6899 19.2488 16.3456 19.9501 16.2061C20.6514 16.0666 21.3783 16.1382 22.0389 16.4119C22.6995 16.6855 23.2641 17.1489 23.6614 17.7434C24.0586 18.3379 24.2706 19.0369 24.2706 19.7519C24.2706 20.7107 23.8897 21.6303 23.2118 22.3083C22.5338 22.9863 21.6142 23.3672 20.6554 23.3672ZM33.0761 17.4031C33.0509 17.2759 32.9986 17.1555 32.9228 17.0502C32.8469 16.945 32.7493 16.8572 32.6366 16.7931L29.2665 14.8725L29.2529 11.0742C29.2525 10.9434 29.2237 10.8142 29.1685 10.6956C29.1133 10.577 29.033 10.4718 28.9332 10.3873C27.7107 9.35319 26.3029 8.56074 24.7847 8.05204C24.6651 8.01157 24.5384 7.9966 24.4127 8.00808C24.287 8.01956 24.1651 8.05724 24.0549 8.1187L20.6554 10.019L17.2525 8.11531C17.1422 8.05351 17.0201 8.01554 16.8942 8.00386C16.7683 7.99219 16.6414 8.00706 16.5216 8.04752C15.0044 8.55994 13.5983 9.35541 12.3776 10.3918C12.2779 10.4762 12.1977 10.5812 12.1425 10.6996C12.0873 10.818 12.0584 10.9469 12.0578 11.0776L12.0409 14.8792L8.6708 16.7998C8.55805 16.864 8.46045 16.9517 8.38461 17.057C8.30878 17.1623 8.2565 17.2826 8.23132 17.4099C7.92289 18.9598 7.92289 20.5553 8.23132 22.1052C8.2565 22.2325 8.30878 22.3529 8.38461 22.4581C8.46045 22.5634 8.55805 22.6511 8.6708 22.7153L12.0409 24.6359L12.0545 28.4342C12.0549 28.565 12.0837 28.6942 12.1389 28.8128C12.1941 28.9314 12.2744 29.0365 12.3742 29.1211C13.5967 30.1552 15.0045 30.9476 16.5227 31.4563C16.6423 31.4968 16.769 31.5118 16.8947 31.5003C17.0204 31.4888 17.1423 31.4511 17.2525 31.3897L20.6554 29.4849L24.0582 31.3885C24.1929 31.4636 24.3447 31.5025 24.4989 31.5015C24.5976 31.5015 24.6956 31.4854 24.7892 31.4541C26.3061 30.9423 27.7123 30.1476 28.9332 29.112C29.0329 29.0276 29.1131 28.9226 29.1683 28.8042C29.2235 28.6858 29.2523 28.5569 29.2529 28.4263L29.2699 24.6246L32.64 22.704C32.7527 22.6398 32.8503 22.5521 32.9262 22.4468C33.002 22.3416 33.0543 22.2212 33.0794 22.0939C33.3862 20.5453 33.385 18.9514 33.0761 17.4031ZM31.3814 21.3472L28.1537 23.183C28.0122 23.2634 27.8951 23.3805 27.8147 23.522C27.7492 23.6349 27.6803 23.7547 27.6102 23.8677C27.5206 24.0101 27.4728 24.175 27.4724 24.3433L27.4555 27.9868C26.5879 28.6681 25.6213 29.2129 24.5892 29.6024L21.3332 27.788C21.1981 27.7132 21.046 27.6743 20.8915 27.675H20.87C20.7333 27.675 20.5955 27.675 20.4588 27.675C20.2971 27.6709 20.1373 27.7099 19.9956 27.788L16.7373 29.6069C15.7031 29.2204 14.7338 28.6783 13.8632 27.9992L13.8508 24.3614C13.8502 24.1927 13.8025 24.0276 13.713 23.8846C13.6429 23.7716 13.574 23.6587 13.5096 23.5389C13.4298 23.3953 13.3127 23.2759 13.1707 23.1932L9.93953 21.3528C9.77233 20.2951 9.77233 19.2178 9.93953 18.1601L13.1616 16.3208C13.3031 16.2404 13.4201 16.1233 13.5006 15.9819C13.5661 15.8689 13.635 15.7492 13.705 15.6362C13.7947 15.4937 13.8425 15.3289 13.8429 15.1605L13.8598 11.517C14.7274 10.8357 15.694 10.2909 16.726 9.90147L19.9775 11.7159C20.119 11.7943 20.279 11.8333 20.4407 11.8289C20.5774 11.8289 20.7153 11.8289 20.852 11.8289C21.0136 11.8329 21.1735 11.7939 21.3152 11.7159L24.5734 9.89695C25.6077 10.2834 26.5769 10.8256 27.4475 11.5046L27.46 15.1425C27.4605 15.3111 27.5083 15.4763 27.5978 15.6192C27.6679 15.7322 27.7368 15.8452 27.8012 15.9649C27.881 16.1085 27.9981 16.228 28.1401 16.3106L31.3712 18.151C31.5407 19.2095 31.5426 20.2881 31.3769 21.3472H31.3814Z" fill="#EEE5E5"/>
</svg>
